<?xml version="1.0" encoding="utf-8"?>
<!-- Generator: Adobe Illustrator 25.0.0, SVG Export Plug-In . SVG Version: 6.00 Build 0)  -->
<svg version="1.1" id="Layer_1" xmlns="http://www.w3.org/2000/svg" xmlns:xlink="http://www.w3.org/1999/xlink" x="0px" y="0px"
	 viewBox="0 0 67 65" style="enable-background:new 0 0 67 65;" xml:space="preserve">
<style type="text/css">
	.st0{fill:#FFC82A;}
	.st1{opacity:0.2;}
	.st2{fill:#E1ECF2;}
	.st3{fill:#FFFFFF;stroke:#FFFFFF;stroke-width:3;stroke-miterlimit:10;}
	.st4{fill:#1C1D1E;}
	.st5{fill:#DB1F1F;}
	.st6{opacity:0;}
	.st7{opacity:0.4;fill:#FEFEFF;}
	.st8{opacity:0.6;fill:#FEFEFF;}
	.st9{fill:#FEFEFF;}
	.st10{opacity:0.8;fill:none;stroke:#1C1D1E;stroke-width:3;stroke-linecap:round;stroke-linejoin:round;stroke-miterlimit:10;}
	.st11{fill:#F4D103;}
	.st12{fill:#003340;}
	.st13{fill:#A2BFDC;}
	.st14{opacity:0.46;fill:#A3B6BF;}
	.st15{fill:#2AC570;}
	.st16{opacity:0.4;fill:#1C1D1E;}
	.st17{opacity:0.8;fill:#1C1D1E;}
</style>
<g>
	<path class="st4" d="M53.86,49.74v1.62c0,1.34-1.09,2.43-2.43,2.43H14.16c-1.34,0-2.43-1.09-2.43-2.43v-1.62H9.54
		c-1.13,0-2.15-0.48-2.87-1.24v2.86c0,4.13,3.36,7.49,7.49,7.49h37.27c4.13,0,7.49-3.36,7.49-7.49v-2.74
		c-0.71,0.69-1.69,1.12-2.76,1.12H53.86z"/>
	<g>
		<g>
			<path class="st0" d="M56.17,24.68H38.08c-1.55,0-2.81,1.26-2.81,2.81v18.29c0,1.55,1.26,2.81,2.81,2.81h18.08
				c1.55,0,2.81-1.26,2.81-2.81V27.49C58.98,25.94,57.72,24.68,56.17,24.68z M55.41,42.24c0,1.48-1.2,2.69-2.69,2.69h-11.2
				c-1.48,0-2.69-1.2-2.69-2.69v-11.2c0-1.48,1.2-2.69,2.69-2.69h11.2c1.48,0,2.69,1.2,2.69,2.69V42.24z"/>
		</g>
		<circle class="st4" cx="47.18" cy="36.53" r="2.3"/>
		<g>
			<path class="st0" d="M27.62,24.68H9.54c-1.55,0-2.81,1.26-2.81,2.81v18.29c0,1.55,1.26,2.81,2.81,2.81h18.08
				c1.55,0,2.81-1.26,2.81-2.81V27.49C30.44,25.94,29.18,24.68,27.62,24.68z M26.87,42.24c0,1.48-1.2,2.69-2.69,2.69h-11.2
				c-1.48,0-2.69-1.2-2.69-2.69v-11.2c0-1.48,1.2-2.69,2.69-2.69h11.2c1.48,0,2.69,1.2,2.69,2.69V42.24z"/>
		</g>
		<circle class="st4" cx="18.64" cy="36.53" r="2.3"/>
		<rect x="27.85" y="31.92" class="st0" width="9.21" height="5.52"/>
	</g>
	<path class="st4" d="M58.92,24.37V14.1c0-4.13-3.36-7.49-7.49-7.49h-1.48c0,0,1.43-1.58,1.84-1.84c0.62-0.38,2.76-0.46,2.76-0.46
		c0.03,0-3.27-2.99-7.32,0.69c0,0-0.97-1.61-3.27-1.15c0,0,1.33,1.59,1.76,2.76H14.16c-4.13,0-7.49,3.36-7.49,7.49v10.46
		c0,0,1.15-1.82,5.06-2.44c1.72-0.27,3.98-0.31,6.91,0.14c5.99,0.92,6.91,0.46,8.75,0c2.12-0.53,7.66-2.53,11.05-4.6
		c3.21-1.96,5.69-4.29,7.26-5.99c1.26-1.36,1.94-2.3,1.94-2.3l-1.26,2.3l-4.27,7.83l11.51-1.84v5.88v0.26c0,0,2.49-0.35,4.15,0.09
		c0.43,0.19,0.81,0.45,1.15,0.77v-0.17c0.02,0.03,0.06,0.05,0.08,0.08L58.92,24.37z"/>
</g>
</svg>
